<svg height="900pt" preserveAspectRatio="xMidYMid meet" viewBox="0 0 1600 900" width="1600pt" xmlns="http://www.w3.org/2000/svg"><g transform="matrix(.1 0 0 -.1 0 900)"><path d="m0 4500v-4500h2021 2021l-5 27c-3 16-13 73-22 128s-20 120-25 145-14 82-20 128c-5 46-12 87-14 91-16 26-28 828-14 926 26 177 14 452-19 452-7 0-13-4-13-9s-4-6-10-3c-5 3-10 1-10-5 0-15-26-41-33-33-3 3-9-6-12-20-9-34-45-66-74-64l-23 1 6 141c8 173 39 333 101 510 83 238 190 485 210 485 6 0 21-7 33-15 20-15 119-55 185-75 57-18 130 12 185 74 48 55 72 145 82 308 16 247 49 458 73 458 9 0 108-43 235-102 23-11 42-24 42-28 0-5 15-12 33-15 17-4 44-16 58-26 44-31 266-125 439-186 57-20 69-30 64-51-2-9-16-105-30-212-28-215-52-382-54-390-4-12-18 48-19 83-1 50-16 47-31-9-11-39-11-50 3-80 21-44 21-71-1-165-20-80-19-99 4-99 8 0 14-5 14-11 0-5 4-8 8-5 5 3 17-15 27-40 10-24 20-42 23-39 3 2 10-3 17-12 14-19-1-58-35-88-11-10-20-23-20-28s-8-16-17-24c-10-8-12-12-6-8 9 4 11 1 7-9-3-9-10-13-15-10s-6-2-3-11c4-8 0-23-7-32-12-14-12-16 0-8 11 6 12 5 5-6-4-8-10-23-11-33-2-11-8-25-14-32-7-8-7-14 0-19 7-4 5-15-7-33-11-17-12-23-4-18 11 7 12 4 4-10-5-11-9-31-8-46 1-16-1-28-5-28s-5-15-3-32c4-25 2-29-5-18-14 20-14 4 0-22 6-12 7-18 1-14-5 3-12-3-15-14s-1-18 4-14c5 3 6-2 3-10-3-9-11-13-18-9-6 4-6 0 2-9 8-10 9-17 2-20-12-4-20-35-24-96-3-42 24-117 48-134 7-5 6-8-2-8-10 0-9-4 3-16 9-9 14-23 11-30s-1-16 5-19c5-4 9-3 8 2-4 26 2 44 14 37 9-6 9-5 0 7-10 13-10 19 2 35 13 18 14 16 15-24 0-24-4-41-8-38-5 3-9-1-9-9s4-12 9-9c4 3 8-6 8-20s-5-28-11-31c-7-5-5-13 5-24 20-22 46-106 46-148 0-30 21-63 41-63 5 0 8-6 7-12-2-10 15-12 67-10 81 3 107-8 134-54 33-56 40-98 30-174-17-123-44-164-106-162-91 4-162 100-163 220 0 47-5 68-19 83-18 20-18 20-42-1-13-12-17-18-9-14 12 6 13 5 4-7-7-8-11-27-9-44 1-16-3-36-9-44-8-11-8-13 2-7 8 5 12-1 13-18 1-14 2-29 3-33 7-26 18-108 15-109-2 0 3-9 11-19 8-11 10-16 4-12-12 7-12-29 1-40 4-5 5-2 1 5-4 6-2 12 5 12 6 0 9-8 6-20-3-11-1-18 4-14 5 3 14-7 19-21 13-35 13-48-2-39-10 6-10 4-2-7 6-8 10-24 9-36s2-20 6-18c8 6 21-31 21-62 1-12 4-21 7-19 4 3 11-7 18-20 8-18 8-23 0-18-7 3-5 0 3-8 8-7 17-24 18-38 2-14 8-29 13-34 5-6 9-18 9-28s5-18 10-18c6 0 34-21 62-47 54-51 87-110 88-155v-28h274 275l3 23 3 22 23-23c21-21 28-22 207-22 102 0 185 3 185 6s-10 20-23 37c-12 18-27 41-33 52-6 10-26 28-45 40-52 30-90 67-85 82 3 7 1 12-4 10-5-1-20 12-34 28-27 34-35 31-43-17-6-40-4-38-38-44-17-3-24-1-20 6 3 5 2 10-3 10-12 0-9 63 3 72 6 5 5 8-2 8-8 0-13 14-13 35 0 19 5 35 11 35 5 0 8-4 5-8-3-5 1-9 8-9 9 0 13 9 10 24-4 20-2 23 13 15 22-10 33-10 53 3 23 14 39 15 34 0-3-7 1-19 8-26 7-8 14-21 16-28 2-8 12-25 22-39 11-13 17-28 14-33s2-9 11-9 14-4 11-9c-5-7 24-20 46-21 4 0 6 65 5 143-2 109 1 148 12 160 7 10 17 17 22 17 15 0 31-42 40-109 15-111 45-177 95-212 43-30 74-73 74-104 0-9 11-27 25-40 20-21 34-25 79-25s59-4 80-25l25-25h376c221 0 375 4 375 9 0 20-13 41-21 35-5-3-9 11-9 31 0 21 4 34 10 30s7 1 3 11c-4 12-3 15 5 10 7-4 12-15 13-24 0-12 2-13 6-4 3 9 14 1 30-23 13-19 28-33 32-31 4 3 7-5 7-17-1-21 4-22 77-25 76-3 77-2 77 21 0 14 6 30 14 36 22 18 46 2 46-30 0-27 3-29 36-29 25 0 33 4 28 12-6 10-4 11 7 1 10-10 127-13 519-12 480 0 506 1 535 20 17 10 37 21 45 25 44 17 59 28 63 46 3 11 10 17 17 13 6-3 9-3 8 2-2 4 2 9 7 11 6 2 14 10 18 18 7 13 11 13 25 2 12-10 14-10 8-1-5 9-1 13 11 13 11 0 25 6 32 12 8 7 11 8 8 2s0-11 8-11 13 3 10 5c-3 3 1 12 8 20 10 13 9 14-3 7-13-8-13-7 0 11 8 10 24 28 35 39 50 47 74 117 44 127-9 3-9 10 0 26 10 19 9 22-9 22-11 0-20 7-20 15 0 24 44 87 78 114 35 26 47 52 43 92-2 19 8 38 34 65 55 59 58 69 29 82-20 10-27 9-41-8-9-10-20-17-25-14-4 3-8-4-8-16 0-47-111-180-207-248-69-49-117-9-74 62 39 62 9 82-71 47-50-22-77-45-107-95-24-38-29-40-129-55-35-6-82-21-105-35-105-62-120-68-176-68-118 0-317 20-355 36-21 9-53 16-70 16-19 0-56 15-92 36-51 31-69 36-132 39-40 2-90 9-110 16s-70 12-110 13c-60 1-75-2-83-17-6-9-20-17-33-17-29 0-164 89-172 113-8 25-71 64-121 75-23 6-56 21-73 36-17 14-48 30-68 36-66 19-136 96-112 125 14 17 79 3 139-31 53-29 101-32 101-6 0 10-9 35-19 55-11 21-22 61-26 90s-13 55-19 59-30 8-53 8c-76 0-123 40-123 105 0 48-25 92-57 98-38 7-89 50-110 90-12 24-14 48-10 100 7 81 36 128 88 143 25 7 35 17 41 40 5 21 22 40 51 58 47 30 77 71 77 105 0 12-11 38-25 59-13 20-28 56-33 79-12 51 2 75 56 101 33 15 37 22 44 66 8 60 35 90 99 111 55 18 54 18 63 61 10 47-14 50-83 12-58-32-59-32-106-18l-47 15 20 23c11 12 23 22 26 22 4 0 34 12 66 27l58 28 4 55c7 93-34 115-112 59-48-35-96-46-138-31-41 14-98-15-138-68-29-39-67-61-91-53-17 6-16 24 2 59 8 16 15 37 15 46s6 21 13 25 18 20 25 36c6 15 33 40 58 55 26 15 59 37 74 49 28 23 103 53 133 53 16 0 18-7 15-42-3-41-1-43 25-46s69 11 119 38c10 6 34 10 53 10s35 3 35 8c0 4 15 15 33 25 23 13 51 16 103 15 63-3 75 0 115 26 55 37 127 45 183 22 43-18 102-21 140-6 22 8 26 16 26 49 0 22 5 43 10 46 6 3 10 21 10 39 0 19 6 39 14 45 12 10 18 2 37-49 25-68 57-100 101-100 31 0 80 36 191 142 57 55 59 59 54 95-4 21-15 49-25 63s-21 36-25 50c-3 14-9 35-12 48-11 35 13 27 36-12 25-42 83-67 105-44 16 15 34 102 34 162 0 39 16 96 33 124 13 20-2 32-39 32-34 0-153 28-166 39-3 3 2 47 13 96 22 103 27 267 9 307-15 31-45 38-185 38-69 0-119 6-160 19-33 10-78 21-100 24s-61 11-87 16c-44 10-103 20-231 40-32 5-53 4-65-5-25-18-57-83-46-93 21-20 181-72 267-87 106-19 152-33 140-45-11-10-217-129-303-175-18-9-36-10-65-4-41 9-54 11-165 30-79 13-372 30-398 23-10-2-27-19-37-36-10-18-31-45-47-61-15-17-28-34-28-39 0-15-26-35-51-39-25-3-45 18-87 93-10 19-47 85-82 147-34 62-61 115-58 117 2 2 56 7 119 10 230 12 240 13 274 51 17 18 49 40 70 47 21 8 41 19 43 25 3 11-17 14-103 15-37 0-406-91-422-104-7-7-39 16-102 75-102 95-158 126-300 163-124 33-265 42-406 25-60-7-135-15-165-18-30-2-106-11-168-19-134-18-209-19-355-5-116 11-141 22-234 97l-42 35 83 68c101 82 247 193 322 245 16 11 51 37 79 58 27 22 59 43 71 47 12 5 45 24 75 43 30 18 148 80 263 137 229 114 280 149 313 219 42 87 145 201 213 236 46 23 144 58 193 69 15 4 51 17 80 30 65 30 111 43 162 49 22 3 65 11 95 18 77 20 769 14 1060-8 240-18 346-19 342-3-3 11 0 11 13 0s15-10 9 3c-5 15-29 27-63 33-7 1-19 11-27 22s-31 30-51 43c-21 12-52 37-69 55-18 18-34 31-36 28-3-2-5 3-5 11s3 13 5 10c3-3 10 3 17 12 14 19 115 25 193 11 26-4 76-12 112-17 36-6 92-17 125-26 107-29 249-67 290-77 22-6 67-11 100-12 49-1 64 2 80 19 12 12 27 19 34 17 8-3 11 0 7 7-7 10 7 16 29 11 38-8 45-8 50 1 4 5 10 7 15 4 4-2 25-7 45-11 67-10 78-13 89-24 5-5 18-10 28-10 11 0 49-14 86-31 192-89 260-124 289-145 17-13 35-24 39-24 7 0 105-60 114-70 12-14 181-130 189-130 5 0 11-6 14-14 3-7 24-27 46-42 46-34 183-143 285-229 39-33 152-141 251-240 206-206 306-296 352-315 17-8 29-19 26-25-4-5-3-7 2-3 11 11 55-16 104-62 81-78 261-312 261-340 0-6 5-10 10-10 6 0 10-5 10-10 0-6 16-33 35-62 46-67 50-85 31-161-19-73-20-113-6-122 6-4 8-16 4-28-4-11-6-47-5-79 1-35-3-58-10-58-5 0-7 6-4 13 4 6 0 5-7-4s-37-27-66-39c-30-13-83-45-119-71-36-27-81-52-102-56-36-8-456-11-626-5-49 2-139 10-200 19-205 28-200 28-223 3-19-21-26-21-105-15-92 8-110 3-162-45-16-16-41-30-55-32-16-2-26-10-27-23-1-16-1-16 3-2 3 9 10 15 15 12 15-10-19-63-113-177-49-59-91-108-92-108-2 0-55-13-117-30-63-16-115-30-117-30s-21 18-42 40c-36 37-38 43-28 70 15 43 46 47 115 14 71-33 110-35 134-5 15 18 16 26 6 49-33 75-82 116-177 150-30 10-71 28-90 39-31 17-35 25-38 67-3 45 25 306 33 315 3 2 9-7 14-20 10-24 10-24 10-1 1 12 6 22 12 22 16 0 59 36 52 44-3 3 6 6 21 6 28 0 32-20 6-28-9-3-10 0-4 9 6 11 3 10-11-1-56-44-54-40-40-81 8-22 12-39 10-39s2-15 10-34c11-25 12-35 3-38-6-2 4-14 23-25 30-19 44-21 110-16 86 6 128-9 199-74 44-39 51-35 20 12-11 17-20 35-20 41s-23 34-50 63c-28 29-50 57-50 62 0 6 20 34 45 62 41 47 51 74 45 117-3 22-5 23-52 23-24 1-46 5-49 10-13 18-106 16-94-2 2-5-11-23-30-41-27-26-35-30-35-16 0 9-4 14-10 11-5-3-10 0-10 7 0 10-2 10-9-1-6-10-10-10-16-1-4 7 6 23 26 40 19 15 31 31 28 34-7 7-72-24-77-36-7-15-45-8-58 10-15 20-18 52-5 52 5 0 12-8 14-17 4-16 5-16 6-1 0 9 16 26 35 37 19 12 37 29 41 38 3 10 3 14-1 10-7-7-24 10-54 52-8 12-20 21-28 21-7 0-24 7-37 16-59 38-295 69-400 52l-65-11-89 61c-73 51-97 62-129 62-22 0-45-6-51-14-13-16-4-46 14-46 7 0 41-16 75-35s64-35 66-35 17-12 33-28c17-15 44-37 61-50 16-13 30-30 30-38s5-14 10-14c6 0 10-6 10-14 0-7 15-25 34-40 35-26 76-35 76-16 0 13 36-5 68-33 15-14 19-23 11-28-15-9-3-28 25-39l23-8-23-154c-13-84-23-157-23-162-1-4-11-6-24-2-20 5-22 2-21-28 2-28-6-42-41-76-38-37-48-42-74-37-26 6-36 0-81-44-31-31-50-58-50-72 0-26-22-61-39-63-6-1-12-2-13-3-2-2-14-5-28-7-14-3-42-9-63-15-36-10-38-12-37-47 3-55 2-58-20-59-13-1-18 2-14 9 5 7 2 8-7 2-14-8-19-10-39-13-16-2-42-62-36-85 6-24 58-80 146-159 49-44 57-48 89-42 20 4 42 11 48 17 19 16 16 51-7 76-24 26-25 38-4 46 19 7 57-17 46-30-4-5-3-6 2-2 4 4 19 3 32-2 19-8 26-5 39 13 17 24 20 74 5 111-8 22-5 31 21 61 17 19 39 35 49 35s24 10 33 22c24 36 28 18 16-73-6-46-8-96-5-110 4-23-5-37-58-88-34-34-76-70-93-81-17-10-34-23-37-29-4-6-21-11-38-11-42 0-29-10 19-16 118-13 144-17 149-25 8-14-10-17-146-28-252-21-355-33-370-46-26-22-56-27-70-10-10 12-36 15-117 15-153 0-146 10-139-178 8-197 23-309 43-316 19-8 69 19 77 41 4 10 41 77 82 149s74 136 74 143c0 19 39 12 50-9 10-18 21-20 123-20 62 0 193 5 291 10 162 9 226 7 213-7-3-2-1-18 5-33 10-31 27-40 83-45 52-5 91-39 125-109 16-35 36-69 45-76 27-22 47-74 52-135 3-33 11-74 19-92 19-42 18-86-5-136-10-23-19-67-19-100-2-68-14-95-47-103-18-4-25-13-25-29 0-13-11-36-23-52-41-48-105-167-112-206-6-31-3-44 20-77 40-58 75-56 140 10 27 28 53 50 57 50s8-14 8-31 4-28 10-24c6 3 10 19 10 36 0 19 9 37 26 52 39 33 61 84 67 159 3 37 11 75 16 85 17 31 91 192 91 197 0 2-6 17-12 33-12 26-15 62-21 228-1 39-8 87-16 108-12 37-12 40 13 66 19 19 25 33 20 47-10 27-85 134-94 134-10 0-40 75-40 99 0 10 17 30 38 43 61 41 182 147 252 219l65 68 122 20c171 29 206 28 232-7 12-15 24-31 29-37 18-22 44-83 53-125 5-25 14-62 20-83l10-38 47 7c55 7 61 3 86-71 41-119 42-120 19-177-29-73-48-224-34-275 6-22 8-70 5-115-6-73-5-78 20-108 14-17 26-42 26-56 0-22 12-29 41-26 4 1 7-75 7-169v-170l-39-122c-50-155-63-182-141-297-72-108-81-126-73-151 5-15 12-13 56 17 36 24 62 34 90 34 36 0 38-2 45-37 12-61 9-87-16-137-13-29-37-56-59-70-45-29-58-44-63-76-4-32-66-74-145-100-35-10-75-28-90-40-16-11-49-26-75-34-54-16-68-8-68 39 0 16-7 39-15 49-13 18-19 18-67 8-53-12-91-7-137 17-18 10-21 9-22-6 0-16-1-15-8 2-5 11-7 25-6 30 1 6 0 7-2 2-3-4-10-4-15-1-7 5-8 2-2-7 4-8 8-40 9-72 0-47-3-56-15-52s-12 3 1-7c9-7 15-21 13-30-2-17 19-18 316-18h319l19 28c11 15 26 43 35 62 15 37 52 76 89 94 22 11 68 70 68 87 0 5-9 9-20 9s-20 4-20 10c0 12 32 69 75 135 18 28 41 75 51 105 11 30 29 72 41 92 13 21 23 44 23 52s4 17 9 20 12 34 16 67c9 80 43 153 105 223 57 65 65 106 30 146-42 48-38 79 26 242 28 71 32 91 24 113-5 14-10 47-10 73 0 47-29 119-47 115-5-1-10 7-11 18-1 10-4 33-6 49-2 17-4 34-5 39 0 5-18 16-40 24-52 21-88 67-97 122-3 25-10 45-14 45-9 0-30-47-30-68 0-25-29-64-42-56-11 7-4 366 7 384 9 14-83 214-102 221-27 11 105 10 256-1 76-6 141-16 150-23 10-8 12-8 8-1-9 16 12 23 95 31l71 6-42-62c-60-88-92-163-98-229-7-75 8-110 99-244 10-16 14-28 8-28-25 0-9-46 23-65 17-10 37-24 43-30 14-14 26-92 15-99-7-5-21-60-26-109-3-25 10-30 26-10 10 11 14 45 13 115 0 54 3 98 7 98s25-21 46-48c20-26 57-68 80-94 37-40 43-53 43-90-1-32-21-155-30-175-6-17-11-38-19-93-10-68-27-141-41-175-16-40-32-121-37-195-3-41-11-93-19-115s-23-65-34-96c-10-31-28-80-41-109-20-46-21-58-11-110 6-32 8-68 5-79-3-12-3-21 0-21 5 0 21 30 72 130 32 64 67 186 70 245 1 28 3 59 4 71 0 12 12 38 26 58 19 28 25 50 26 94 0 31 6 75 13 97 9 32 17 41 39 43 25 3 66 50 113 128 8 14 10-8 6-86-4-89-2-108 12-119 18-15 21-47 6-56-12-7-14-35-2-35 13 0 55 119 71 201l8 44 43-92 43-93 14 28c8 15 16 42 17 59 2 18 9 39 16 48 10 12 10 15-2 15-19 0-36 69-44 174l-7 84 49 7c69 9 126 29 137 47 28 43-39 67-138 49-59-11-109-6-99 10 12 20 54 308 59 409 3 47 7 96 10 110 12 57 5 193-11 218-9 14-11 21-3 17 8-5 10-4 5 3-9 16-33 15-40 0-3-7-4 0-1 15 4 19 2 26-5 22-6-4-10-55-11-128 0-67-5-147-10-177s-10-60-11-67c-1-6-9-13-18-16-13-3-17 4-18 33-2 21-5 48-7 61-3 13-5 86-6 161 0 109-4 141-15 153-45 44-55-8-51-257 2-136 3-146 18-132 16 14 20 8 48-65 17-44 31-98 31-120s5-43 10-46c6-3 10-34 11-68 0-44 3-56 9-42 8 18 9 18 9-5 0-14-5-35-13-48-12-23-13-23-57 28-81 95-99 128-99 182 0 27-6 61-14 76-7 15-16 61-19 102-7 83-42 359-47 375-6 15 28 121 42 132 7 6 45 18 83 27 196 45 268 77 364 160l63 54 46-29c40-25 47-35 50-67 2-20 17-116 34-212 16-96 34-202 38-235 17-118 27-164 39-178 12-15 58-14 73 1 6 6 17 8 26 5 9-4 13-2 9 4-3 5 5 16 18 23 14 7 25 19 25 25 0 23 26 37 39 22 6-8 7-17 3-21s-1-6 7-4c19 4 27-34 45-222 11-111 12-174 6-220-5-36-10-94-10-130-1-221-103-735-198-995-64-175-92-244-137-340-26-55-51-110-56-122l-9-23h2125 2125v4500 4500h-8000-8000zm12360 4400c0-5-4-10-9-10-6 0-13 5-16 10-3 6 1 10 9 10 9 0 16-4 16-10zm-702-11c-2-6-8-10-13-10s-11 4-13 10 4 11 13 11 15-5 13-11zm3082-169c0-5-4-10-10-10-5 0-10 5-10 10 0 6 5 10 10 10 6 0 10-4 10-10zm-7020-264c0-15-24-28-34-19-13 14-5 33 14 33 11 0 20-6 20-14zm35-74c-8-8-25 10-19 20 4 6 9 5 15-3 4-7 6-15 4-17zm7445-67c0-8-6-15-14-15-17 0-28 14-19 24 12 12 33 6 33-9zm-10409-454c53-16 110-66 138-119 19-37 24-63 25-127l1-80h-105-105l-11 65c-15 84-22 100-49 110-34 13-64 1-82-34-21-40-34-270-24-431 8-136 25-170 81-170 50 0 70 34 78 136l7 84h105 105l-1-95c-1-81-5-103-27-145-51-100-124-139-262-139-105 1-155 13-216 53-82 55-109 142-116 381-7 242 7 328 74 430 45 69 134 102 263 95 47-2 101-9 121-14zm5542-2c49-16 113-71 137-120 67-129 78-461 23-637-44-139-179-208-359-183-160 23-221 89-260 284-20 96-14 316 10 428 40 183 141 255 341 244 39-2 87-10 108-16zm-5036-4c9-3 13-47 15-156 2-100 7-154 14-156 6-2 46 66 89 152 61 122 82 156 101 161 29 7 210 1 219-7 3-4-36-80-88-170s-102-179-111-197l-17-33 132-256c81-157 127-258 121-262-6-3-66-6-134-6h-123l-25 50c-14 28-45 97-70 154-25 58-50 106-56 108-7 2-21-11-33-30-18-30-21-50-21-156v-121l-37-1c-44-1-187 2-189 4-1 1-5 210-9 464l-7 462 43 3c49 3 167-1 186-7zm-1567-18c50-24 75-48 98-93 57-111 26-278-61-329l-28-17 40-37c22-20 45-50 51-66 6-17 15-95 20-175 4-80 10-154 11-165 4-19-2-20-109-23l-112-3-12 28c-6 15-10 71-10 123 1 106-11 176-35 202-12 13-31 18-69 18h-54l-2-182-3-183-111-3-111-3-6 58c-8 88-10 850-2 863 5 8 74 10 239 8 190-3 237-7 266-21zm494 8c3-8 5-211 6-451 0-313-3-440-11-450-15-18-199-20-217-2-9 9-12 126-12 465v453h114c91 0 115-3 120-15zm2424-2c6-10 13-38 17-63 6-41 109-461 169-694 14-54 26-111 26-127v-29h-114c-68 0-117 4-121 10s-9 36-12 68c-9 91-11 92-108 92-101 0-111-8-121-90-4-33-12-64-18-68-17-14-221-23-234-10-6 6-7 21-1 42 5 17 16 58 24 91 7 33 32 132 54 220s54 223 71 300c39 171 59 246 72 263 8 8 50 12 149 12 122 0 139-2 147-17zm577-35c8-29 23-84 34-123 18-65 75-268 87-307 15-50 22 5 30 230l9 247 97 3c85 3 97 2 106-15 5-10 9-204 8-468l-1-450-121-3c-105-2-122 0-136 15-14 16-31 73-124 411-15 56-31 102-36 102-4 0-8-93-8-207 0-115-3-232-6-260l-7-53h-98c-57 0-101 4-104 10-8 13-17 899-9 912 3 4 63 8 134 8h129zm1010 30c91-50 133-128 144-272 9-114-4-424-19-466-22-60-70-117-123-146l-52-29h-217c-119 0-219 3-222 6-9 9-10 49-8 491l2 427 28 4c15 3 119 4 232 3 170-1 210-4 235-18zm977-18c4-19 24-123 43-230 46-253 45-250 56-250 10 0 11 7 34 135 9 50 20 110 25 135s17 86 26 135c9 50 21 96 27 103 11 14 312 18 321 3 4-5 7-213 9-463l2-453h-110-110l-2 295c-2 355-1 326-13 314-11-11-79-346-100-489-19-128-16-125-110-125-91 0-91 0-104 95-7 50-95 517-103 544-12 43-15-30-14-318l2-321h-113-113l1 453c0 248 1 458 2 465 2 10 40 12 170 10l167-3zm1919 25c97-34 133-104 127-242-4-109-25-156-80-184-22-11-38-24-36-29s19-19 37-32c63-42 73-73 79-231 2-78 9-150 14-160s7-21 4-24c-9-10-201-14-215-5-19 14-30 82-31 195 0 102-13 148-45 161-9 3-36 6-60 6-55 0-56-4-54-201 0-83-2-153-5-156-3-4-53-8-110-11-74-3-105-1-111 7-8 15-9 897 0 911 4 6 93 10 224 10 171 0 228-3 262-15zm787 5h33l-3-92-3-93-85-5-85-5-3-362-2-363h-110c-96 0-112 2-117 17-4 10-7 173-7 363l-1 345-90 5-90 5-3 84c-2 46 0 91 3 99 5 13 40 14 268 9 144-4 277-7 295-7zm310-23c13-26 21-52 59-184 10-35 23-63 30-63 6 0 19 26 28 58 9 31 28 94 41 140l25 82h125c142 0 141 1 103-87-11-26-36-91-56-143s-46-115-58-140c-83-162-85-172-85-373v-185l-37-6c-42-7-192 0-201 9-3 3-6 92-7 198v192l-63 145c-74 169-152 359-152 370 0 14 32 18 135 17 98-2 100-2 113-30zm1219-123c8-21-13-42-28-27-13 13-5 43 11 43 6 0 13-7 17-16zm-59-36c-6-18-28-21-28-4 0 9 7 16 16 16s14-5 12-12zm420-46c2-7-3-12-12-12s-16 7-16 16c0 17 22 14 28-4zm-10391-908c25-25 25-27 18-117-4-51-7-102-7-113 4-57-112-82-161-36-28 26-37 20-37-24 0-45 35-68 102-67 63 1 101 27 108 74l5 33 84-74c162-142 163-144 140-221l-12-38-27 29c-33 35-48 37-84 9-31-25-33-51-5-90 23-33 62-39 91-12 16 14 18 14 18 0 0-8-14-25-30-37-27-19-35-21-60-10-17 7-39 10-50 7s-23-1-26 4-16 6-29 3c-41-10-145 64-325 230-30 28-79 72-108 97-50 43-54 51-62 105-4 33-6 61-4 63 4 5 29-15 235-190 225-191 276-240 282-270 4-23 4-23 6 3 1 28-67 96-239 239-41 34-91 76-111 93-135 118-159 140-159 146 0 7 37 23 163 71 73 27 79 28 102 13 27-18 26-20 41 51 8 36 13 41 44 46 62 11 70 9 97-17zm-140-295c14-14 95-14 121 0 15 8 23 8 28 0 13-21-22-40-77-41-58-2-99 14-99 37 0 18 12 19 27 4zm11743-194c7-9 10-18 7-21-10-11-37 5-37 21 0 19 14 19 30 0zm-11270-66c0-11-7-36-15-56s-13-38-11-41c5-4 42 51 49 72 5 15 37-2 37-19 0-9-12-32-26-51-31-40-21-45 17-8 15 14 32 23 38 20 16-11 14-21-14-54-31-37-32-48-3-28 12 9 26 16 30 16 17 0 7-28-17-50-22-21-29-23-46-12-18 12-24 10-51-18-17-18-36-29-44-26-16 6-19-10-4-19 19-12 10-25-16-25-32 0-164 107-164 133 0 18 34 24 45 7 11-18 50-10 78 15 45 42 60 72 53 105-4 23 0 36 14 50 23 23 50 16 50-11zm-135-78c-3-6-11-8-17-5-6 4-5 9 3 15 16 10 23 4 14-10zm2985-11c0-23-10-26-28-8s-15 28 8 28c13 0 20-7 20-20zm8440-50c0-5-4-10-10-10-5 0-10 5-10 10 0 6 5 10 10 10 6 0 10-4 10-10zm-11231-123c22-24 22-24 2-48l-20-24-32 32c-27 27-30 34-19 47 18 23 43 20 69-7zm-224-14c29-23 32-30 22-47-37-67-36-106 3-106 8 0 50-9 93-20 73-18 80-19 103-3 23 15 26 15 52-8 70-61 101-93 97-100-8-12-17-91-21-194l-5-100-41-37c-22-21-59-43-81-50-36-11-42-10-51 6-6 10-15 24-21 32-10 13-183 47-197 38-4-3-2-18 4-35 6-16 7-33 4-36-9-10-69 21-110 57-38 34-45 50-22 50 11 0 15 20 15 95 1 116 15 219 43 303l20 63-26 20c-36 28-33 44 17 73 53 32 60 32 102-1zm379-31c29-26 214-236 278-316 31-39 69-86 84-104 32-39 27-55-25-82l-40-20-188 188c-103 104-210 207-236 229l-48 42 17 26c23 35 83 66 114 59 14-3 33-13 44-22zm10386-7c0-8-7-15-15-15-16 0-20 12-8 23 11 12 23 8 23-8zm-10592-16c12-11 20-25 16-30-3-6 2-19 11-29 10-11 15-26 12-35-8-20-50-19-69 3-16 18-38 75-38 98 0 21 43 17 68-7zm9422-20c0-4-7-10-15-13-11-4-19 3-25 20-6 14-10 27-10 30 0 7 49-30 50-37zm-9809-57c-19-35-33-115-40-222-6-94-8-102-19-77-7 16-12 63-12 106 0 69 4 86 35 151 20 40 38 70 41 67s1-14-5-25zm-581-42c0-5-5-10-11-10-5 0-7 5-4 10 3 6 8 10 11 10 2 0 4-4 4-10zm1638-399 53-49-3-57-3-57-59-19c-48-17-61-18-68-7-16 23 3 239 21 238 3-1 30-23 59-49zm-88 26c0-6-5-28-10-47-13-46-15-189-2-202 6-6 18-6 33 3 63 33 203 59 323 59h120l-31-32c-16-18-47-60-69-93-21-33-62-93-92-133-50-68-57-92-29-92 28-1 296-138 297-152 0-7-59-45-180-114-36-21-82-48-104-62l-38-24 93-63c52-34 111-81 132-102l38-40-58-13c-32-7-74-15-93-17s-69-13-112-23c-42-11-94-20-117-20-41 0-63-16-40-30 7-5 37-16 66-25s53-20 53-24c0-15-90-52-140-58-29-3-74 0-104 7l-53 13 5 69c5 66 8 74 77 178 109 163 134 213 151 297 20 94 13 160-25 240-87 182-338 261-490 153-14-10-44-20-66-22-39-3-40-2-43 31-5 54 16 120 61 194 23 37 44 67 48 67 3 0 14-26 24-57 26-83 46-133 54-133 4 0 18 23 31 51 30 63 114 140 197 180 34 16 65 34 68 39 9 14 25 12 25-3zm-558-420c-2-10 5-25 15-32 21-16 14-20-54-29-42-6-42-6-52 31-12 43-14 96-4 131 5 22 8 21 52-29 27-32 45-60 43-72zm488 61c105-62 180-185 180-296 0-88-45-201-125-312-18-25-40-61-50-80-25-51-64-90-83-82-14 5-13 2 1-18 9-14 17-41 17-61 0-29-7-43-31-63-17-14-41-26-54-26-14 0-35-14-54-37-66-80-118-120-180-141-46-16-148-15-205 2-82 25-161 103-166 166-4 41-1 42 33 16 59-45 63-28 6 23-79 70-119 154-119 249 0 39 5 83 11 99 25 68 84 96 139 68 35-18 54-12 26 8-15 11-17 17-7 35 13 24 26 28 36 12 3-5 14-10 23-10 13 0 12 3-6 16-12 8-22 24-22 35 0 20 0 20 28 1 15-10 40-22 56-26l29-7-26-27c-32-33-56-89-50-113 9-33 88-17 123 26 24 29 2 26-44-6-33-23-49-30-57-22-26 26 64 144 142 187 77 41 79 179 4 238-42 33-19 45 72 37 179-17 257-71 323-228 40-94 72-131 98-115 69 44-4 273-113 355-67 50-129 77-198 85-114 13-36 44 103 41 83-2 102-6 140-29zm-171-52c64-24 148-91 182-144 57-90 83-238 41-230-17 3-18 4-71 120-69 152-159 210-346 224-68 5-95 10-95 20 0 24 28 29 137 28 75 0 122-6 152-18zm-260-113c14-11 32-37 39-59 18-52-5-112-58-154-42-33-76-38-121-15-88 46-90 177-4 236 37 25 104 21 144-8zm11371-273c0-5-5-10-11-10-5 0-7 5-4 10 3 6 8 10 11 10 2 0 4-4 4-10zm-10348-375c24-22 70-62 103-89 33-28 115-104 183-170 67-66 122-115 122-109s-57 67-127 137c-70 69-124 126-120 126 9 0 133-76 172-105 17-12 51-34 77-48s72-47 103-72c48-39 75-54 75-41 0 8-143 112-230 167-52 33-97 64-99 70-2 7 24 7 75 2 133-13 309-6 524 21 258 33 378 33 530 2 159-32 248-76 335-166 83-84 115-129 215-297 116-196 159-332 185-586 17-171 12-320-16-471-24-124-34-159-42-136-69 210-90 259-154 365-44 74-79 115-148 179-193 176-355 256-765 377-74 21-164 48-200 59s-88 25-115 30c-28 5-125 27-215 49-91 22-183 43-205 47-156 26-352 93-491 166l-31 17 13 103c15 118 17 185 7 174-5-4-15-80-25-169-9-89-23-214-31-277s-20-169-27-235c-6-66-20-171-30-234-23-132-45-171-118-203-90-40-83-43-750 290-378 188-413 207-406 226 4 12 9 56 11 99 3 42 8 77 12 77 7 0 397-215 416-230 20-15 194-106 420-220 218-111 230-118 239-151 8-30 11-20 21 83 7 64 18 138 24 165 6 26 15 84 22 128 31 226 69 478 74 485 5 9 35 152 35 169 0 33-13-3-31-86-26-122-21-116-73-87-58 33-102 84-116 135-20 74-15 79 73 85 77 4 113 16 170 57 33 23 29 28-37 53l-49 18 79 18c129 31 268 55 281 49 6-3 31-24 55-46zm-1751-57c15-27 6-126-17-193-9-28-31-71-50-98-19-26-34-50-34-54 0-12 89 80 114 117 148 226 150 228 162 196 3-7-5-42-17-77-18-56-33-76-117-161-54-55-90-98-81-98s71 56 137 125c67 69 126 125 132 125 30 0-13-88-81-170-21-25-63-63-93-85-93-67-51-58 49 11 57 39 96 60 100 54 21-35-133-157-258-204-26-10-45-22-42-26 3-5 16-4 30 2 31 14 72 3 80-22s-11-60-33-59c-9 0-64 24-122 52-131 65-142 82-136 204 3 64 10 93 33 139 15 33 36 60 46 62 23 5 22-15-4-86-34-94-39-120-22-133 19-16 60 14 91 67 24 42 82 213 82 242s20 92 30 92c5 0 15-10 21-22zm9104-86c45-24 30-27-46-11-38 8-83 8-172 0l-119-11-96-58c-103-61-206-150-251-216-35-51-50-94-65-175-11-61-36-97-36-51 0 41 33 166 55 210 26 50 135 161 205 207 25 16 70 46 100 67 40 26 74 39 120 47 36 5 67 13 70 16s48 3 100 1c71-4 105-10 135-26zm1275-72c0-5-5-10-11-10-5 0-7 5-4 10 3 6 8 10 11 10 2 0 4-4 4-10zm1960-100c0-5-4-10-10-10-5 0-10 5-10 10 0 6 5 10 10 10 6 0 10-4 10-10zm-7201-92c-2-79-32-111-61-66-31 48-31 63 4 81 49 24 58 21 57-15zm3916 11c63-12 134-34 165-49 66-34 211-166 244-224 49-83 94-236 71-236-16 0-61 39-86 72-26 37-50 37-30 1 17-32 78-84 100-86 17-1 21-8 21-39v-37l-45 30c-60 41-103 52-155 40-48-11-82-39-115-96-45-79-40-156 14-218 34-38 107-77 145-77 14 0 26-5 26-11s-32-43-71-81c-76-75-174-129-259-142l-45-6 37 32c20 18 41 43 47 55 15 31 14 109-3 141-22 44-108 118-174 151-144 72-311 40-341-66-13-46 11-84 80-128 34-21 89-64 123-94 35-31 71-61 82-68 34-21-9-15-78 11-157 59-248 123-328 231-70 95-122 259-105 335 5 25 1 39-21 71-49 71-31 179 36 214 33 17 96 20 105 5 3-5 13-10 22-10 13 0 12 5-6 24-21 22-22 26-8 52 24 47 138 148 198 178 50 24 131 41 214 45 17 1 80-9 140-20zm493-25c49-41 57-68 67-206 6-101-2-136-39-167-24-20-21 4 5 40 18 25 20 38 14 77-4 26-7 70-6 98 2 68-11 100-62 152-50 51-37 56 21 6zm-3773 0c50-7 138-14 198-14 59 0 107-3 107-7 0-11-19-133-26-167l-6-28-72 4c-68 3-75 6-126 48-30 25-57 47-60 51-3 3-38 31-77 63-74 59-91 84-50 72 12-4 63-14 112-22zm6855-68c0-2 3-11 6-20 4-12 0-16-15-16-14 0-21 6-21 20 0 11 7 20 15 20s15-2 15-4zm-7460-81c0-7-20-13-50-14-27-1-50 2-50 6 0 5 17 17 38 29 33 18 38 19 50 5 6-8 12-20 12-26zm-3876-75c-27-176-45-304-55-410-6-58-15-109-20-114-5-6-18-2-31 11-13 11-51 35-85 52-35 17-63 33-63 34 0 2 18 46 40 97s40 102 40 111c0 10 5 21 10 24 6 3 10 15 10 25s3 20 8 22c4 2 20 28 36 58s46 78 66 105c21 28 40 59 44 69 14 41 14 6 0-84zm-1209 8c29-20 35-29 35-60 0-21-4-38-10-38-14 0-90 31-90 37 0 11 23 83 27 83 2 0 19-10 38-22zm4935 17c0-2-9-9-20-15-16-9-18-8-14 5 5 13 34 22 34 10zm210-57c11-18 20-38 20-44 0-16-165-27-191-13-17 8-18 13-8 25 21 26 92 55 152 63 4 1 16-14 27-31zm-3255 7c39-8 106-24 150-34s132-31 195-46 117-29 120-31c10-11-27-59-50-65-17-5-19-7-7-8 10-1 16-5 12-10-8-15-245 69-387 137-161 77-166 86-33 57zm4060-10c0-16-8-21-42-23-40-3-43-2-43 23s3 26 43 23c34-2 42-7 42-23zm4016-69c-31-74-39-116-22-116 5 0 16 12 26 26 39 59 177 175 192 161 3-4-21-35-53-69-68-72-106-123-98-131 4-3 32 7 63 22 69 35 162 64 173 53 4-4-25-23-64-42-78-38-136-86-122-100 5-5 37-5 74-1 118 15 102-7-28-38-89-21-144-55-160-99-77-214-125-311-229-470-137-211-190-257-298-257-47 0-73 6-117 29-32 16-58 35-58 41 0 17 111 45 151 39 33-6 39-1 107 68 111 111 267 361 337 539 20 52 41 99 46 106 8 8-15 10-91 6-68-4-100-2-100 5 0 12 7 14 90 32 73 17 83 23 86 55 6 58 105 237 122 220 2-2-10-38-27-79zm-4996-57c49-6 94-21 150-49 108-55 131-74 118-103-19-46-7-114 38-213 25-53 24-58-12-88-53-45-136-28-172 34-24 39-15 50 39 50 39 0 44 3 44 23 0 31-32 80-72 109-69 51-136 71-263 79-66 4-145 15-175 24-58 17-111 13-129-9-8-10-32-12-89-9-42 3-78 6-80 8-2 1 21 17 50 35 212 131 266 164 292 175 25 11 37 8 110-22 45-19 112-39 151-44zm-707 48c6 0 12-3 12-6 0-8-162-101-209-121-20-8-43-19-51-25-45-30-130-67-167-72-42-6-43-5-58 30-27 66-21 83 39 111 30 14 57 26 60 26s29 11 58 24 80 29 113 36 64 13 70 14c5 1 34-2 65-7 30-5 61-9 68-10zm-6018-36c0-23-28-35-46-20-17 14-18 46-1 52 19 7 47-12 47-32zm1778 17c-4-31-25-33-30-3-4 20-1 25 14 25 14 0 19-6 16-22zm8236-140c3-13 7-54 9-93 8-134 76-275 177-369l49-46-67-56c-37-30-103-72-147-93-78-37-251-88-261-78s122 242 192 337c55 75 68 100 52 100-24-1-170-233-274-435-45-87-55-100-80-103-41-5-94 13-143 48l-41 30 21 42c25 49 45 81 146 234 40 61 73 116 73 121 0 6 21 35 48 66 73 88 124 158 118 164-9 9-35-16-69-66-16-25-46-64-65-86-64-75-292-443-292-471 0-11-24-14-122-15-285-2-564 9-665 27-69 13-133 168-133 326 0 105 14 168 54 250 30 61 32 63 72 66 23 2 107-6 188-17 122-18 197-21 453-21 356 0 377 4 479 76 69 50 148 83 196 84 21 0 29-6 32-22zm1110-46c67-37 89-69 94-139 3-51 0-64-27-106-58-90-128-109-217-57-99 56-119 157-51 257 51 75 119 91 201 45zm-6741 7c31-7 57-15 57-18 0-4-27-20-61-36-36-17-65-38-72-52-11-25-27-31-27-10 0 38 24 127 35 127 6 0 37-5 68-11zm382-80c180-31 191-35 226-66 20-18 43-33 50-33 23-1 63-36 55-49-7-10-111-81-121-81-2 0-21-16-42-36-21-19-50-41-64-49-14-7-57-49-95-92-62-70-97-104-100-100-1 1 4 37 11 81l12 78 72 67c39 36 71 69 71 74 0 11-50 8-50-4 0-5 5-7 10-4 6 3 10 1 10-5 0-7-8-9-20-5s-28 1-36-6c-8-6-17-9-21-6-3 4-11 3-17-2-17-13-48-22-42-12 3 5-2 12-11 15-15 6-30-6-34-26-1-5-2-11-4-15-1-5-5-21-10-38-4-16-11-34-14-40-4-5-6-20-5-32 0-13-4-23-10-23s-4-5 4-10 10-10 3-10c-6 0-10-8-9-17 2-10-2-21-8-25-6-5-7-8-1-8s10-31 9-75c-2-72-3-77-44-127-101-127-120-159-120-199 0-21-3-39-6-39-17 0-134 93-134 106 0 18 56 72 88 85 28 11 37 34 25 62-7 15-24 24-64 32-30 6-53 15-52 21s7 67 12 135c11 126 28 216 43 234 5 6 30 10 55 10 45 0 46 1 76 55 16 30 42 70 58 88 33 37 37 62 12 62-27 0-44 15-38 32 7 19 44 38 65 33 8-2 100-18 205-36zm2950-149-15-45 5 40c3 22 5 47 5 55 0 9 3 11 10 4s5-25-5-54zm-1793 9c-14-13-58-18-72-8-11 8-9 9 9 4 13-4 21-3 18 1-3 5 8 9 24 9 16 1 26-2 21-6zm7358 7c0-3-4-8-10-11-5-3-10-1-10 4 0 6 5 11 10 11 6 0 10-2 10-4zm-7615-43c-11-2-27-7-35-10-26-10-40-12-40-4 0 16 15 21 54 20 23-1 32-3 21-6zm-64-78c-9-30-9-30-10 10-1 25 2 36 9 29 6-6 6-21 1-39zm759-23c14-2 30-8 35-14 7-8 6-9-4-3-9 5-12 4-7-3 4-6 14-8 23-5 10 4 14 2 10-4s3-9 18-7c14 1 25-2 25-6 0-5 10-10 22-12s24-10 26-18c3-8 1-12-3-8-5 4-14 3-22-3-24-21-90-22-132-3-34 15-39 20-28 33 10 14 10 14-4 4-9-7-20-9-24-5-5 4-5 1-1-5 4-7 2-13-3-13-6 0-11 6-12 13 0 10-2 10-6 0-2-7-9-13-14-13-6 0-7 5-3 12 5 7 3 8-7 2-21-13-39-14-39-1 0 7-5 5-10-3-9-13-10-13-10 0 0 11-2 12-8 3-7-12-36-12-47-2-3 3 5 14 17 25 12 10 18 13 14 7-4-7-2-13 3-13 6 0 11 5 11 10 0 6 5 10 11 10 5 0 7-6 3-12-6-10-5-10 8-1 8 7 18 10 21 6 4-3 7-1 7 5 0 7 4 12 10 12 5 0 7-8 4-17-2-10 1-8 7 5 7 12 20 22 30 22s21 5 24 10c4 6 12 7 18 3 7-4 23-9 37-11zm-1067-76c30-45 26-64-4-26-11 14-17 17-13 8 3-10-2-20-15-27-26-14-34-14-25 1 4 7 3 8-4 4s-12-14-12-22-4-13-9-9c-5 3-22-7-37-22-16-16-31-27-34-26s-10-9-17-23c-7-16-8-22 0-17 6 4 8 0 4-10-4-11-1-15 13-12 23 4 21-23-3-37-9-5-17-6-17-3 0 4-7-1-16-10-10-9-25-14-35-12-20 6-43-15-31-29 4-4-2-2-12 6-12 9-17 10-13 3 6-9-2-12-27-11-19 1-42-4-50-11-20-17-54-22-62-9-4 7-2 8 4 4 7-4 12-1 12 9 0 9 5 13 10 10 6-4 10 5 10 19s3 26 8 26c4 0 12 10 17 23 6 12 17 21 24 19 7-1 10 2 6 8-3 6-10 8-14 5-5-2-7 3-6 13 2 26 16 52 25 47 4-2 16 4 26 14 34 31 73 53 84 46 5-3 10-3 10 2 0 14 99 65 112 57 7-4 8-3 4 4-5 8 3 12 24 12 27 0 31 3 25 18-8 23 5 8 38-42zm2437-47 19-37-22-6c-42-11-47-7-47 33 0 22 3 47 6 56 8 19 12 15 44-46zm3270-129c25-23 62-53 83-67 20-14 37-29 37-34 0-4-15-10-32-14-57-12-151-48-193-73l-39-25-88 93c-48 50-88 96-88 100s33 13 73 19c39 6 94 22 122 35 56 27 58 27 125-34zm2820-79c0-22-21-33-40-21-18 11-4 40 20 40 13 0 20-7 20-19zm-9620-33c-1-13-7-36-15-53l-13-30-1 46c-1 25 2 49 6 52 13 14 23 7 23-15zm3290-34c0-2-14-4-31-4-16 0-28 4-25 9 5 8 56 3 56-5zm1333-6c-17-8-29-8-45 0-20 9-18 11 22 11s42-2 23-11zm757-56c0-2-15-30-34-61-68-114-80-146-77-208 1-12 24-52 53-90 105-138 372-469 401-497l29-28 103 7c64 4 105 3 109-3 3-5-33-20-82-34l-87-24 1-89c1-50 6-125 11-168s6-80 2-82c-12-8-47 87-54 148-4 31-11 57-15 57-10 0-45-98-60-168-7-28-16-55-21-58-15-9-10 117 7 176 20 72 21 78 9 81-9 3-98-113-125-160-5-9-12-13-16-9-10 11 33 111 72 165 19 26 30 49 24 51-5 2-28-8-52-21-24-14-54-28-68-32l-25-7 23 24c32 35 117 79 136 72 31-12 15 15-61 101-82 91-133 151-220 257-29 34-69 81-89 103-32 36-57 69-106 144-10 14-23 49-29 77-10 45-9 59 10 115 12 35 40 94 64 130 68 106 61 102 118 67 27-17 49-33 49-36zm-5623 26c-3-8-6-5-6 6-1 11 2 17 5 13 3-3 4-12 1-19zm3801-24c-32-32-140-30-152 2-6 15 0 16 51 12 32-3 69-2 83 2 32 9 38 4 18-16zm3231 9c23-16 23-17 5-24-28-11-104-11-104 1 0 10 48 39 65 40 6 0 21-8 34-17zm-7019-24c0-6-4-7-10-4-5 3-10 11-10 16 0 6 5 7 10 4 6-3 10-11 10-16zm5646-131c0-73 4-168 8-210 11-96-1-101-59-26-78 99-90 139-59 201 36 71 95 167 103 167 4 0 7-60 7-132zm-4756 102c0-11-4-20-10-20-5 0-10-7-10-15s-7-15-15-15-15-5-15-11c0-5-4-8-10-4-5 3-18-2-28-12s-27-23-38-29c-10-6-19-20-19-30-1-11-6-18-13-16-7 1-15-12-19-29-7-35-33-55-84-64-40-7-64 11-52 41 6 17 7 16 14-2 6-17 8-17 19 8 7 15 17 25 21 22 5-3 9 2 9 10 0 9 7 16 15 16s15 7 15 16c0 8 5 12 10 9 9-5 15 16 11 38-1 5 3 6 9 2 5-3 10-2 10 3 0 20 39 52 62 52 14 0 38 11 54 25 35 30 64 33 64 5zm3997-37c-3-10-5-2-5 17s2 27 5 18c2-10 2-26 0-35zm-2097-50c0-4 5-37 10-73l9-65-82-148c-75-135-108-179-125-163-8 9-21 200-21 333-1 80 2 113 12 116 22 8 197 8 197 0zm-1850-22c0-5-15-21-32-36-19-14-25-22-13-18 17 6 18 5 5-9-8-9-19-13-25-10-5 3-3-3 5-13s10-16 5-13c-6 4-15-5-22-18-6-13-7-22-3-19s6-4 3-15-10-17-17-13c-6 4-4-2 4-12 10-13 11-16 2-11s-13 3-11-5c3-28-1-38-16-33-8 4-15 1-15-5 0-19-38-33-60-21-11 6-18 15-15 19 3 5-2 11-10 15-19 7-19 26 0 26 8 0 15 5 15 11 0 5 5 7 10 4 6-3 10-2 10 3 0 14 41 57 51 54 5-1 8 4 7 10-2 7 3 12 11 10 12-3 12-1 0 14-8 10-9 15-2 11s14 1 18 13c4 11 15 20 26 20s17 4 14 10c-4 6 1 7 11 3 13-5 15-3 9 7-5 9-4 11 3 6 7-4 12-1 12 8s5 16 10 16c6 0 10-4 10-9zm854-24c-9-15-14-43-12-60 3-29-1-34-44-56-48-23-48-23-48-75 0-37 7-62 25-91 40-65 30-103-25-96-32 4-47 16-77 64-15 25-39 45-67 57-48 20-61 42-44 69 13 21 92 71 113 71 19 0 75 33 75 45 1 18 57 90 69 88 6-2 11 1 11 5s9 8 19 8c18 0 18-2 5-29zm1054-14c-4-45-20-47-29-4-7 33-3 41 18 41 10 0 13-11 11-37zm3188-19c0-13-2-22-5-19s-6 17-7 31c0 13 2 22 5 19s6-17 7-31zm-2226-54c0-5-9-10-21-10-11 0-17 5-14 10 3 6 13 10 21 10s14-4 14-10zm-3568-21c26-14 136-97 143-108 3-5-1-24-9-42-7-19-16-59-20-90-3-31-19-108-35-170-16-63-32-132-36-155-3-22-15-56-26-74-30-49-39-25-39 111 0 94-3 118-15 123-26 9-15 416 11 416 3 0 15-5 26-11zm5508-170c4-13 4-44 1-69l-6-45-22 29c-25 31-29 66-12 97 13 25 31 20 39-12zm-5255-20c11-17-1-21-15-4-8 9-8 15-2 15s14-5 17-11zm999-139c-1-58-2-118-4-135-1-16 1-51 5-77 4-25 4-90 0-142-6-85-9-96-26-96-22 0-21-4-19 146 1 91-2 114-15 128-9 9-23 16-31 16-16 0-19 26-4 35 6 3 10 31 10 60 0 30 6 69 14 87s19 46 25 61c7 19 17 27 28 25 15-3 17-17 17-108zm6314 17c4-20-25-34-40-19s-1 44 19 40c10-2 19-11 21-21zm-72-28c8-14-18-31-30-19-9 9 0 30 14 30 5 0 12-5 16-11zm492-56c2-8-5-13-17-13s-21 6-21 16c0 18 31 15 38-3zm-7045-96c6-15-3-107-10-107-3 0-18 8-34 17-35 21-37 48-7 80 24 26 43 30 51 10zm-638-154c-4-26-13-56-21-67s-14-30-14-42c0-11-3-24-7-28-10-9-10-13-12-74-1-36-5-49-16-49-9 0-15 10-15 24 0 13 4 21 10 18s7 1 4 9c-8 21 13 138 31 173 8 15 15 34 15 41 0 6 5 12 10 12 6 0 10 7 10 15s3 15 6 15c4 0 3-21-1-47zm5295 0c0-7-9-13-19-13-20 0-31 17-24 37 6 16 43-6 43-24zm-7640-183c0-5-4-10-10-10-5 0-10 5-10 10 0 6 5 10 10 10 6 0 10-4 10-10zm2634-92c1-13-2-29-7-35-5-7-6-13-2-13s1-8-6-17c-10-11-10-14-1-9 6 4 12 5 12 1 0-3-12-10-26-16-26-9-26-10-8-31 11-12 13-18 7-14-7 4-13 2-13-3 0-6-9-11-21-11-13 0-18 4-13 13 9 15-38-23-49-40-4-7-15-13-23-13s-12-4-9-10c3-5-2-10-12-10-15 0-16-2-3-10 13-9 13-10 0-11-8-1-18-1-22 0-4 0-5-6-1-15 5-13 7-13 14-2 5 7 9 8 9 2s-3-14-7-18c-5-4-8-13-8-19 0-7-11-14-24-15-16-3-21 0-16 9 5 7 0 18-11 27-19 14-18 15 1 8 16-6 18-5 8 5-18 19-16 39 5 40 14 0 14 2-3 9l-20 9 20 1c11 1 15 4 10 6-13 5-7 74 6 74 5 0 5 7 2 17-4 9-2 14 3 11 5-4 10 5 11 19 0 14 7 30 13 37 10 8 11 8 5-4s-5-13 6-2c7 6 17 12 22 12 4 0 5-6 1-12-6-10-5-10 7-1 12 10 20 9 37-3 20-14 21-14 15 3-3 10-2 15 2 11 5-5 14 1 22 12s23 20 34 20c10 0 19 5 19 12 0 20 13-1 14-24zm724-20c6-7 15-41 22-76 6-34 22-79 36-99 13-20 27-48 30-62 17-78 49-141 109-213 92-109 87-127-15-58-53 36-60 45-75 97-13 43-28 68-59 98-53 50-57 58-91 175-21 76-24 101-16 123 11 29 41 36 59 15zm3483-263c-12-25-23-45-25-45-6 0 14 71 27 95 21 39 19-5-2-50zm-8751-35c0-5-4-10-10-10-5 0-10 5-10 10 0 6 5 10 10 10 6 0 10-4 10-10zm4572-28c2-18 10-37 18-42 13-8 13-11 1-22-11-11-13-11-6 1 6 11 4 13-9 8-9-4-14-3-11 2s1 12-4 15c-5 4-8 14-6 24 2 9 4 26 4 36 1 29 9 16 13-22zm-295-27c0-8-5-11-10-8-7 4-8-1-3-13 5-14 4-16-4-8-6 6-8 18-4 27 8 21 21 22 21 2zm-1-87c-2-38-16-52-31-32-17 24-8 49 12 33 8-7 13-8 12-3-2 12 0 24 4 24 2 0 3-10 3-22zm9974-198c0-5-4-10-10-10-5 0-10 5-10 10 0 6 5 10 10 10 6 0 10-4 10-10zm-12375-110c0-22-29-18-33 3-3 14 1 18 15 15 10-2 18-10 18-18zm2833-19c-7-9-13-17-14-19 0-1-6 10-13 25-10 24-9 26 2 11 8-10 17-15 20-11 4 3 1 13-6 22-11 14-10 14 6 2 14-11 15-17 5-30zm9512-54c0-24-25-48-43-41-17 6-23 35-10 47 12 12 53 7 53-6zm-9623-49c-3-7-5-2-5 12s2 19 5 13c2-7 2-19 0-25zm0-55c-3-10-5-4-5 12 0 17 2 24 5 18 2-7 2-21 0-30zm1442-107c8-9 8-21 2-37-9-22-10-22-12-4-1 11-2 25-2 31s-6 11-13 11-11-5-7-10c3-5-4-4-16 2-27 15-27 16 8 19 16 1 34-4 40-12zm336 4c3-5-1-10-10-10s-13 5-10 10c3 6 8 10 10 10s7-4 10-10zm82-77c-3-10-5-4-5 12 0 17 2 24 5 18 2-7 2-21 0-30z"/><path d="m10162 7710c-40-16-46-52-50-300-4-263 2-305 51-328 34-17 63-8 85 26 15 23 17 56 17 277 0 270-5 303-51 324-14 6-26 11-27 10-1 0-12-4-25-9z"/><path d="m3473 7684c-20-9-18-198 2-214 19-16 81-7 106 16 45 40 48 151 6 179-24 16-95 27-114 19z"/><path d="m6486 7624c-11-38-45-221-51-285l-7-66 58-5c82-7 87-4 79 51-11 84-58 306-66 315-4 4-10 0-13-10z"/><path d="m7985 7638c-3-24-4-153-3-288l3-245 31-3c45-4 81 13 100 50 21 41 31 263 16 391-12 109-32 137-98 137-43 0-43 0-49-42zm40-298c0-7-6-15-12-17-8-3-13 4-13 17s5 20 13 18c6-3 12-11 12-18z"/><path d="m10882 7579c3-119 11-130 75-111 46 14 73 54 73 109 0 36-20 78-44 95-6 4-33 8-59 8h-48z"/><path d="m3302 6708c-18-18-14-30 8-23 13 4 23 0 32-14 7-12 21-21 31-21 14 0 16 5 11 28-4 15-9 30-11 35-7 11-58 8-71-5z"/><path d="m3390 6691c0-5 5-13 10-16 6-3 10-2 10 4 0 5-4 13-10 16-5 3-10 2-10-4z"/><path d="m3290 6641c-12-23-13-31-2-31 4 0 12 11 19 25 13 29-1 34-17 6z"/><path d="m3445 6346c-22-7-44-14-50-15-33-10-55-22-55-28 0-5 22-24 48-43s50-39 53-44c11-15 159 40 159 59 0 14-85 85-102 84-7 0-31-6-53-13z"/><path d="m3520 5708c-30-71-56-254-46-322 8-53 23-64 95-73l49-6 7 109c4 60 13 147 21 193 8 45 12 87 9 91-5 8-84 30-110 30-8 0-20-10-25-22z"/><path d="m4004 4664c-61-30-87-68-92-133-6-79 18-120 93-156 43-22 62-26 94-20 116 20 175 139 118 240-44 78-135 108-213 69zm151-24c60-37 83-136 45-197-41-67-118-90-187-54-76 38-105 114-74 189 30 71 147 105 216 62z"/><path d="m4095 4480c-4-7-3-16 3-22 13-13 54 0 49 15-5 16-43 21-52 7z"/><path d="m3523 4455c-103-45-73-255 53-363 78-68 140-93 236-99 73-4 88-1 122 19 50 29 75 63 87 117 8 37 6 48-12 77-24 39-33 42-149 47-107 4-133 18-186 105-34 57-91 113-113 112-3-1-20-7-38-15zm156-143c11-21-3-42-26-42-14 0-17 18-7 44 8 21 21 20 33-2zm38-66c-4-9-11-16-17-16-11 0-14 33-3 44 11 10 26-11 20-28zm63-16c0-5-5-12-11-16-14-8-33 11-25 25 7 11 36 4 36-9zm52-22c-9-9-15-9-24 0-10 10-10 15 2 22 20 12 38-6 22-22zm-227-78c11-17-5-32-21-19-7 6-11 15-8 20 7 12 21 11 29-1zm45-51c0-18-2-19-15-9-15 12-12 30 6 30 5 0 9-10 9-21zm70-30c0-20-24-26-35-9-8 13 14 42 26 34 5-3 9-14 9-25zm47-35c-9-9-28 6-21 18 4 6 10 6 17-1 6-6 8-13 4-17z"/><path d="m3951 4364c13-14 36-32 51-40 30-16 118-19 118-5 0 6-15 7-33 4-36-5-101 21-126 51-8 9-18 16-24 16s0-12 14-26z"/><path d="m3997 4275c78-35 104-105 67-176-19-39-11-50 11-15 26 39 29 95 8 136-22 42-76 80-112 79-21 0-16-4 26-24z"/><path d="m3783 4703c-20-7-15-33 6-33 11 0 22 4 25 9 8 12-16 29-31 24z"/><path d="m2907 3672c-27-30-19-43 9-15 22 22 31 24 67 19 30-4 38-3 27 4-25 16-85 12-103-8z"/><path d="m12020 3601c0-13 100-24 147-17 85 15 68 26-39 26-60 0-108-4-108-9z"/><path d="m11869 3521c-14-10-38-44-53-75-24-48-28-65-24-119 2-39 11-75 22-91 24-38 32-26 10 16-22 41-22 133 0 176 9 18 30 48 48 67 35 40 33 55-3 26z"/><path d="m11990 3529c-80-33-131-103-133-182-3-122 69-207 186-223 33-5 53-1 84 14 190 97 149 378-57 397-30 3-66 0-80-6zm166-41c44-30 78-98 75-155-3-98-87-193-171-193-96 1-190 94-190 190 0 63 57 150 115 177 40 18 131 8 171-19z"/><path d="m11947 3383c-13-12-7-33 8-33 8 0 15 9 15 20 0 20-11 26-23 13z"/><path d="m12215 3063c15-35 17-73 5-87-14-18-36-11-72 22-32 30-50 22-22-9 26-29 70-50 89-43 33 13 44 63 23 109-12 28-35 35-23 8z"/><path d="m13139 3179c-17-18-22-29-13-29 13 0 50 47 43 54-2 2-16-9-30-25z"/><path d="m12386 3101c-7-11 18-33 27-24 4 3 7 12 7 20 0 15-26 18-34 4z"/><path d="m7586 2802c-3-5 1-9 9-9s12 4 9 9c-3 4-7 8-9 8s-6-4-9-8z"/><path d="m7806 2777c3-10 9-15 12-12s0 11-7 18c-10 9-11 8-5-6z"/><path d="m6556 2568c3-4 11-5 19-1 21 7 19 12-4 10-11 0-18-5-15-9z"/><path d="m8228 4993c6-2 18-2 25 0 6 3 1 5-13 5s-19-2-12-5z"/><path d="m8590 4921c-19-5-28-19-42-66-10-33-18-63-18-66 0-10 46-27 91-33 50-7 65 1 95 52 12 21 29 36 47 39 32 6 34 14 10 36-40 35-127 54-183 38z"/><path d="m7222 4801c-12-17-19-31-14-31 14 0 44 38 40 50-2 6-14-3-26-19z"/><path d="m7293 4805c0-8 3-15 6-16 3 0 17-3 31-6s35-6 46-6c14-1 20-6 17-15-5-11-7-11-14 0-5 7-9 8-9 3 0-6 6-17 13-23 6-7 12-18 12-25s11-11 28-9c38 5 97 30 97 42s-57 28-88 25c-12-1-20 0-18 3 3 3-4 13-16 23-24 22-94 27-82 7 6-10 5-10-7-1-13 10-16 10-16-2zm114-52c-4-3-2-12 4-19 7-8 6-14-2-20-7-4-9-3-5 4 3 6 2 13-4 17-10 6-5 25 7 25 4 0 3-3 0-7z"/><path d="m8220 4686c0-2 14-6 30-8 17-3 30-1 30 4 0 4-13 8-30 8-16 0-30-2-30-4z"/><path d="m8346 4662c-3-3-6-28-6-55 0-40-3-50-20-54-11-3-20-9-20-14s-13-3-28 5c-20 10-33 11-46 4s-17-7-12 0c3 6 0 9-6 8-22-3-58-26-58-36 0-17 86-100 104-100 10 0 30 13 46 30 24 25 32 28 66 23 22-3 58-11 81-19 23-7 49-11 58-8 19 8 45-13 39-30-3-8 2-20 10-29 13-13 13-16 1-20-7-3-28-2-45 3-30 9-60 4-60-9 0-3 14-17 30-30 39-30 40-71 4-100-28-22-25-35 15-68 36-31 131-4 131 36 0 16 9 17 70 16 39-1 73-5 76-8s-6-4-20-3c-14 2-26-1-26-5 0-9 43-14 65-9 6 1 16 2 23 1 39-5 66-2 107 10 6 2 26 0 45-4 109-21 140-19 140 9 0 8-3 13-7 12-5-1-25 6-46 16-20 10-48 16-62 13-14-2-28 0-32 6s-1 7 8 2c8-5 11-4 6 1s-12 9-15 10c-4 0-27 3-52 7-88 13-120 15-115 7 3-5 0-12-6-16-7-4-9-3-6 3 4 6-1 17-10 24-14 12-16 12-9-1 4-9 1-8-7 3-8 9-20 17-28 17-10 1-9 4 4 14 33 25 21 52-35 80-29 14-60 26-70 26-15 0-16 4-8 26 6 14 10 54 10 88 0 87-14 98-133 108-51 5-104 10-119 12s-29 2-32-2z"/><path d="m7925 4641c-3-5-2-12 3-15s9 1 9 9c0 17-3 19-12 6z"/><path d="m7958 4623c7-3 16-2 19 1 4 3-2 6-13 5-11 0-14-3-6-6z"/><path d="m8845 4580c-9-14 14-33 31-25 13 5 15 9 6 12-6 3-10 8-8 12 3 4-2 8-10 8s-17-3-19-7z"/><path d="m7997 4556c5-14 3-17-7-11-9 5-11 4-6-4 4-6 12-9 17-5 6 3 10 0 8-7-5-37 0-40 66-37 48 2 65 7 65 17 0 8-3 11-7 8-3-4-15 1-26 10-10 10-21 17-23 16-10-7-25-2-19 6 3 5 0 13-6 17-8 4-9 3-5-4s2-13-3-13c-6-1-17-2-23-3-7-1-19 5-26 14-10 13-11 12-5-4z"/><path d="m8147 4553c5-12-8-18-30-14-5 1-6-3-2-9 4-7 12-7 24 0 23 12 34 37 16 37-7 0-11-6-8-14z"/><path d="m10547 4523c-4-3-2-12 4-19 8-10 5-11-13-8-19 4-18 2 7-13 17-9 34-16 39-15 5 2 16-4 25-12 10-9 22-12 30-7 17 11-2 42-40 65-29 17-42 20-52 9z"/><path d="m10515 4430c-3-5 11-24 31-42 44-38 49-44 89-97 37-50 54-58 47-24-4 22-2 24 17 18 33-10 26 17-11 45-18 13-51 41-73 61-42 37-89 56-100 39z"/><path d="m10332 4421c2-7-6-15-17-17-41-7-95-35-95-49 0-10-10-15-27-15-25 0-26 0-8-20 18-19 17-20-3-20-12 0-26-9-32-19-8-16-6-23 10-34 11-7 17-17 13-21s1-4 12 0c18 7 18 6 6-9s-12-17 2-12c8 4 18 1 23-6 5-8 3-10-7-4-8 5-11 4-6-1s14-9 20-9c7 0 12-5 12-12 0-6 4-15 8-20 5-4 7-2 5 6-2 7 7 15 19 17 18 3 21 0 18-18-3-12-8-25-12-29-35-35-183 26-206 83-5 15-10 16-30 7-25-11-25-15-17-109 0-3 15-13 33-22 112-57 165-81 185-84 21-4 71-49 72-66 0-9 70-51 86-51 8 0 14-3 14-7 0-9 47-30 67-30 9 0 26-11 39-25 14-15 34-25 50-25 25 0 88-39 106-64 5-7 8-7 8 2 0 7-9 20-20 29-11 10-20 21-20 26s-6 15-14 22c-10 11-16 11-27 2-9-8-8-6 1 7 12 15 12 20 2 23-6 3-10 9-6 14 3 5 0 9-6 9s-8 5-4 12c5 8 2 9-10 5-10-4-15-3-11 3 3 6-1 13-9 16-9 3-14 10-11 14 6 9-71 93-100 109-12 6-14 11-6 11s-2 15-23 34c-20 19-36 41-36 48 0 8-6 37-14 66-7 29-10 55-5 58 8 5 13 1 82-74 41-44 57-52 57-27 0 14 12 20 35 16 14-3-70 75-89 82-8 3-20 16-26 28-10 17-9 20 2 13 11-6 11-5 0 8-11 14-10 17 6 22 20 7 52-1 52-13 0-4 14-15 30-24 17-10 30-26 30-36 0-11 7-22 16-25 8-3 12-10 9-16-3-5-1-10 4-10h18c8 0 12 49 6 73-2 9-9 17-14 17-6 0-16 6-22 13-41 45-61 69-51 64 7-4 9 3 6 21-5 24-6 24-13 7-4-11-8-15-8-8-1 6-20 11-48 12-74 2-81 3-76 18 3 7 9 11 13 8 5-3 11-1 14 4 7 10-20 9-30-2-4-4-13-2-21 5-11 9-13 8-11-1zm-54-223c-2-6-12-12-21-14-9-1-15 2-11 7 3 5 10 7 15 4 5-4 9-1 9 4 0 6 3 11 6 11s4-5 2-12z"/><path d="m9481 4351c-9-6-10-10-2-12 7-3 13-14 14-26 0-12 5-19 9-17 4 3 13-7 20-21 6-14 17-24 24-21 14 5 33-39 28-66-1-10 2-18 7-18 6 0 7-4 4-10-3-5-1-10 5-10s8-5 5-10c-4-6-1-9 7-8 7 2 12-3 11-9-2-7 1-13 5-13 5 0 32-22 60-50 28-27 58-50 66-50 12 0 13-5 7-22-5-13-14-22-20-20-6 1-11-2-11-8 0-5-10-10-22-10h-23l25-20c17-13 27-15 32-7 4 7 11 1 18-17 8-23 13-26 25-16 8 7 13 16 10 20s2 11 11 14c23 9 31 7 14-4-12-7-12-13-1-32 10-20 21-24 59-25 26-1 73-11 105-22 61-21 65-19 42 25-8 16-15 42-15 57 0 31-52 87-82 87-9 0-19 4-22 8s-30 21-60 36c-31 15-72 43-91 62-30 28-34 37-25 53 8 16 6 26-12 47-26 30-112 89-145 99-13 3-23 11-23 16 0 14-27 11-34-3-3-7-3-3 0 10 6 23-2 27-25 13zm322-395c4-10 1-13-7-10s-17 1-21-5c-9-16-25-13-25 3 0 12 12 20 41 25 4 0 9-6 12-13z"/><path d="m9365 4253c-39-20-37-17-39-52-1-17 0-29 2-27s13-5 25-16c44-39 109-88 118-88 5 0 35-17 67-39 73-49 100-56 98-27-1 13-13 27-33 37-18 9-30 19-26 23 3 3-1 6-11 6-9 0-15 4-12 9s-8 23-25 40c-16 17-27 37-23 43 4 7 3 8-4 4s-12-1-12 8c0 8-5 18-12 22s-8 3-4-4c18-30-4-7-33 33-18 25-35 45-39 45-4-1-20-8-37-17z"/><path d="m7740 4199c-19-5-43-11-52-13-32-8-54-25-68-50-7-14-11-29-8-32s61-5 128-5c104 0 136-5 226-30 127-35 149-37 114-7-14 11-36 25-50 30s-40 29-59 54-46 50-59 55c-29 11-125 10-172-2z"/><path d="m6018 4164c-16-8-28-18-28-23 0-15 56-18 69-4 6 7 7 13 2 13s-11 6-13 14c-3 12-7 12-30 0z"/><path d="m8753 3555c0-6 6-12 12-12s12 6 12 12-6 12-12 12-12-6-12-12z"/><path d="m9381 3562c-1-7-5-11-10-8s-11-6-14-20c-5-26-5-26 15-6 11 11 18 26 15 33-4 11-6 11-6 1z"/><path d="m10247 3443c3-21 7-40 9-42 1-1-1-14-6-27s-6-23-1-21c5 1 8-2 8-7-2-10 114-68 121-61 3 2-17 39-43 82-76 123-98 142-88 76z"/><path d="m11050 3378c0-9 5-20 10-23 13-8 13 5 0 25-8 13-10 13-10-2z"/><path d="m8780 3365c0-2 5-15 11-29 15-31 34-39 50-20 9 11 8 18-6 34-16 17-55 28-55 15z"/><path d="m10700 3351c0-6 11-23 25-38l24-28 1 31c0 20-6 34-16 38-22 9-34 7-34-3z"/><path d="m11065 3331c-3-5-2-12 3-15s9 1 9 9c0 17-3 19-12 6z"/><path d="m4740 3280c0-5 5-10 11-10 5 0 7 5 4 10-3 6-8 10-11 10-2 0-4-4-4-10z"/><path d="m4593 3126c-13-6-23-14-23-18 0-14 17-8 35 12 20 22 20 22-12 6z"/><path d="m4276 2717c3-10 9-15 12-12s0 11-7 18c-10 9-11 8-5-6z"/><path d="m5260 2329c-19-12-37-25-40-28-3-4-26-21-51-38-85-59-109-111-112-245-1-28-4-33-12-22s-11 4-12-26c-2-29 1-39 9-34 7 4 8 3 4-5-5-7 3-23 18-37 14-15 28-35 31-45 13-39 30-17 26 31-1 9 13 42 30 75 18 33 43 80 55 104 13 25 24 59 24 76 0 18 7 38 15 45s15 18 16 24c0 16 48 113 49 101 1-5 5-1 9 10 5 12 4 23-3 27-16 11-17 10-56-13z"/><path d="m8752 1908c-19-19-14-53 11-76 32-30 52-27 68 9 12 30 11 33-17 55-33 27-45 29-62 12z"/><path d="m5145 1840c3-5 8-10 11-10 2 0 4 5 4 10 0 6-5 10-11 10-5 0-7-4-4-10z"/><path d="m10041 1819c-10-17-21-52-25-78-4-30-18-63-37-89-34-47-39-62-45-155-5-65-4-67 21-77 15-6 39-7 53-4 15 3 32 6 39 6 6 1 8 8 5 17-5 14-4 14 14 1 10-8 16-10 12-6-4 5-2 16 4 24 17 20 19 32 24 196 4 123 2 152-11 172-20 32-31 30-54-7z"/><path d="m4182 1820c0-14 2-19 5-12 2 6 2 18 0 25-3 6-5 1-5-13z"/><path d="m8352 1775c-29-33-28-45 8-112 17-31 30-62 30-69 0-22 20-27 39-10 10 9 32 16 49 16 36 0 40 10 13 34-10 9-35 50-55 91s-43 75-50 75-22-11-34-25z"/><path d="m8641 1620c-1-89 7-110 29-71 20 39 7 161-18 161-5 0-10-40-11-90z"/><path d="m7640 1662c-24-12-37-27-42-50-11-42 3-67 51-92 21-10 41-26 44-35 11-27 44-17 58 17 23 55 16 89-26 136-21 23-41 42-44 42s-22-8-41-18z"/><path d="m5122 1630c0-14 2-19 5-12 2 6 2 18 0 25-3 6-5 1-5-13z"/><path d="m4822 1476c1-15 6-26 10-26 12 0 10 38-2 45-6 4-9-5-8-19z"/><path d="m8806 1401c-18-20-19-52-1-58 14-4 48 54 40 67-9 15-20 12-39-9z"/><path d="m8365 1369c-4-6-25-9-47-7l-41 2-13-49c-27-104-15-125 71-125 55 0 115-28 140-66 22-34 15-84-21-135-31-45-27-80 10-105 23-14 28-14 80 10 43 20 57 32 62 53 4 16 31 51 60 78 30 28 54 55 54 61 0 16-81 53-130 59-66 8-91 25-107 69-14 43-92 166-104 166-4 0-11-5-14-11z"/><path d="m4408 1214c-12-18-29-337-19-343 12-8 34-90 28-106-7-18 17-197 29-218 8-14 13 28 18 160 4 98 7 183 7 188 0 12-9 50-11 50-1 0-3 17-4 38s-9 43-17 48-9 9-4 9c15 0 11 110-6 150-8 19-18 30-21 24z"/><path d="m9849 1163c-1-5 0-16 1-26s-5-26-12-35c-21-25-48-101-41-118 6-17 13-17 36 0 26 20 48 186 25 186-4 0-9-3-9-7z"/><path d="m4684 1056c-25-39-23-317 4-335 4-3 12-14 15-25 6-14 4-17-9-12-12 4-11-1 5-23 24-33 27-45 9-36-7 4-6 1 3-7 9-7 14-18 12-24s3-17 12-24c18-15 21-36 2-24-7 5-5 2 5-8 21-19 24-33 6-22-7 4-4-2 6-14 21-24 34-30 20-9-5 7-2 5 7-5 15-16 17-15 24 25 23 123 8 307-34 400-11 27-21 55-21 62s-7 26-15 41c-8 16-15 37-15 47 0 24-17 21-36-7z"/><path d="m11438 1015c-3-6-9-26-12-45l-7-35 16 34c14 32 17 68 3 46z"/><path d="m10088 990c-9-10-14-21-10-24 3-3 1-6-4-6s-9-28-10-63c-1-89-65-241-109-259-16-6-54-36-83-65s-61-53-72-53c-10 0-36-18-56-40-20-21-40-38-44-37-5 1-16-6-27-15-10-10-35-32-55-49-21-17-38-37-38-45 0-17 32-18 48-2 9 9 16 7 31-6 13-12 21-14 26-6s11 7 23-2c9-8 13-8 9-2-4 7 0 15 9 18 10 4 13 2 9-7-4-6 1-3 9 7 9 12 16 14 16 7 0-9 5-7 16 4 12 11 20 13 29 5 10-8 15-8 21 1 5 8 3 9-6 4-8-5-11-4-7 3 4 5 15 9 25 8 9-2 23 4 30 13 11 13 12 13 7 1-4-10-2-9 8 2 8 10 17 15 20 11 4-3 7-1 7 6s5 9 10 6c6-3 10-1 10 5s4 9 9 6 12 1 15 10c8 21 7 22-24 27-50 8-60 17-49 44 9 25 93 139 106 145 12 5 57 78 77 123 9 22 21 48 26 57 22 39 40 105 40 146 0 46-13 53-42 22z"/><path d="m7772 969c2-7 10-15 17-17 8-3 12 1 9 9-2 7-10 15-17 17-8 3-12-1-9-9z"/><path d="m11407 923c-4-3-7-16-6-27 0-19 1-19 10 3 10 24 8 36-4 24z"/><path d="m7550 884c0-16 11-37 28-52 16-15 32-39 35-53 6-24 13-27 68-33 98-10 129-8 129 8 0 21-27 45-58 52-55 12-63 16-114 60-60 51-88 57-88 18z"/><path d="m9661 854c-12-20-21-40-19-44s13 12 26 36c27 53 22 58-7 8z"/><path d="m10715 875c-5-11-15-26-22-34-8-7-11-16-8-19 10-10 46 38 42 56-3 15-5 15-12-3z"/><path d="m11363 822c-7-4-26-47-43-96-73-207-229-474-364-624-36-40-66-69-66-65 0 10-20-19-20-29 0-5 21-8 48-8 52 1 50-2 138 153 22 38 54 91 72 119 17 27 32 56 32 63s15 35 34 62c40 58 86 147 86 166 0 7 9 32 20 55 11 22 20 45 20 50 0 6 14 42 31 82 31 73 33 85 12 72z"/><path d="m10872 714c-20-33-31-62-28-71 6-14 8-14 21 4 7 11 17 33 21 49s11 34 16 41c6 7 8 17 6 22-1 5-18-15-36-45z"/><path d="m4576 702c-3-20-6-63-6-95 0-55 2-61 39-97 69-69 113-236 69-261-24-13-18-97 7-115 19-14 39-9 29 7-3 5 0 8 8 7 7-2 28-24 45-50 18-25 37-49 43-53 5-3 10-15 10-25 0-12 7-18 19-17 16 1 18 4 8 16-9 12-9 13 0 8 19-12 28 40 11 61-30 36-57 93-60 129-2 21-8 45-13 52-6 10-4 12 6 6 8-5 7 0-3 12-10 11-18 28-18 39 0 14-2 16-9 6-7-11-10-10-15 3-3 9-3 22 1 27 3 7 1 8-5 4-7-4-12-2-12 3 0 6-7 11-15 11s-15 5-15 10c0 6 5 10 11 10 7 0 9 8 4 23-3 12-7 27-7 34-1 7-4 11-7 10-12-4-51 30-43 38 4 5 2 5-4 2s-18 3-28 14c-14 17-15 23-4 37 11 15 11 15-3 4-15-11-18-8-28 19-14 40-14 99-1 99 12 0 13 47 1 54-5 3-11-11-15-32z"/><path d="m5150 539c0-31 34-165 46-184 13-21 61-45 49-25-3 5 0 10 7 12 8 3 13 30 14 76 1 39-2 69-7 66-8-5-13 9-10 29 0 4-5 6-11 5-7-2-12 2-11 8 1 8-6 10-19 6-12-3-19-1-15 4 3 6-5 11-19 12-13 1-24-3-24-9z"/><path d="m10650 424c-36-41-82-101-103-132s-57-81-79-110c-22-30-38-55-35-58 6-6 139 93 158 118 10 13 23 19 32 15 12-5 19 3 27 31 5 20 10 46 10 57s14 49 30 84c17 35 29 65 28 67-2 1-32-31-68-72z"/><path d="m6417 376c-3-8 2-20 11-27 14-11 15-11 5 0-6 7-9 20-6 27 3 8 3 14 0 14s-7-6-10-14z"/><path d="m10782 217c-12-13-22-28-22-35 0-6-8-16-17-21-10-6-14-11-10-11s3-9-3-19c-7-13-7-22 0-26 5-3 10 1 10 9s6 19 14 23c16 10 69 103 58 103-5 0-18-10-30-23z"/><path d="m10706 185c5-11 11-12 25-4 25 13 24 14-6 17-18 1-23-2-19-13z"/><path d="m5302 179c6-16-16-41-28-31-5 4-4 0 2-8s10-26 9-40c0-14 5-31 12-38 6-6 10-23 7-36-4-23-3-23 91-25 52-1 95 2 95 6 0 14-34 59-68 90-18 16-34 39-35 51 0 11-5 18-9 16-4-3-8 0-8 6s-10 10-22 9c-13-2-29 1-37 5-10 7-13 5-9-5z"/><path d="m5425 171c-3-5-2-12 3-15s9 1 9 9c0 17-3 19-12 6z"/><path d="m11141 70c-7-17-10-38-7-47 6-14 9-12 21 11 16 30 20 66 7 66-4 0-13-14-21-30z"/><path d="m9243 8c-2-5 7-8 21-8s27 3 29 8c3 4-6 7-20 7s-27-3-30-7z"/></g></svg>